<svg xmlns="http://www.w3.org/2000/svg" width="565.453" height="80" viewBox="64.144 169.362 565.453 80"><path fill="#333" d="M64.144 248.678v-78.875h34.883c3.63 0 6.982.764 10.05 2.278 3.076 1.52 5.724 3.522 7.948 6.006a28.296 28.296 0 0 1 5.22 8.436c1.264 3.146 1.895 6.322 1.895 9.5 0 5.112-1.28 9.76-3.838 13.94-2.55 4.19-6.012 7.213-10.383 9.06l17.992 29.664h-17.218l-16.11-26.438h-15.11v26.44h-15.33v-.01zM79.47 208.8h19.217c1.405 0 2.72-.335 3.938-.998 1.217-.67 2.28-1.58 3.168-2.727.89-1.145 1.594-2.498 2.112-4.05.518-1.558.78-3.225.78-5.002 0-1.854-.296-3.552-.89-5.108-.598-1.562-1.392-2.91-2.393-4.055-1-1.152-2.147-2.037-3.444-2.664-1.294-.636-2.61-.953-3.94-.953H79.465v25.553l.007.004zm113.312 26.44v13.438h-54.77v-78.875h53.767v13.446h-38.43v18.994h33.214v12.445H153.35v20.548l39.437-.003-.005.004zm34.44-65.437h13.55l29.995 78.875h-15.77l-7.333-19.665h-27.56l-7.215 19.665h-15.774l30.106-78.875zm17.66 48.442l-10.89-30.998-11.322 30.998h22.216-.004zm26.886-9.556c0-4.815.873-9.578 2.608-14.28 1.74-4.696 4.277-8.903 7.607-12.606s7.406-6.702 12.22-8.997c4.812-2.298 10.296-3.444 16.442-3.444 7.258 0 13.536 1.59 18.83 4.776 5.295 3.187 9.24 7.33 11.83 12.44l-11.775 8.11c-1.035-2.22-2.29-4.09-3.77-5.607-1.48-1.52-3.076-2.727-4.78-3.613a21.478 21.478 0 0 0-5.336-1.943 25.487 25.487 0 0 0-5.446-.607c-3.85 0-7.203.776-10.05 2.326-2.857 1.56-5.223 3.582-7.11 6.057-1.884 2.488-3.313 5.298-4.276 8.445s-1.445 6.274-1.445 9.388c0 3.476.56 6.83 1.67 10.05 1.108 3.224 2.686 6.054 4.722 8.497a23.53 23.53 0 0 0 7.326 5.9c2.85 1.48 5.975 2.22 9.39 2.22 1.774 0 3.625-.224 5.55-.666a21.413 21.413 0 0 0 5.502-2.108c1.736-.96 3.355-2.206 4.832-3.73 1.48-1.506 2.67-3.35 3.555-5.488l12.556 7.217a23.686 23.686 0 0 1-5.383 7.83 34.64 34.64 0 0 1-7.89 5.714c-2.92 1.56-6.054 2.748-9.388 3.562-3.335.818-6.586 1.23-9.774 1.23-5.626 0-10.775-1.19-15.44-3.56-4.67-2.374-8.688-5.463-12.06-9.287-3.368-3.808-6.002-8.146-7.883-12.998-1.885-4.853-2.833-9.792-2.833-14.827h.003l-.005-.006zm139.2-25.44h-25.22v65.43h-15.22v-65.43h-25.21v-13.446h65.655v13.446h-.006z"/><path fill="#8892BF" d="M422.41 248.678v-78.875h32.657c3.41 0 6.536.725 9.394 2.175a24.816 24.816 0 0 1 7.387 5.656 27.042 27.042 0 0 1 4.887 7.948c1.188 2.96 1.78 5.957 1.78 8.998 0 3.25-.555 6.388-1.666 9.39-1.108 2.997-2.668 5.64-4.67 7.94-1.995 2.298-4.383 4.147-7.157 5.552-2.777 1.412-5.874 2.12-9.28 2.12h-25.55v29.104l-7.774-.008h-.005zm7.777-35.99h25.21c2.3 0 4.392-.503 6.28-1.504a15.285 15.285 0 0 0 4.83-3.996c1.336-1.668 2.372-3.59 3.11-5.777a21.143 21.143 0 0 0 1.11-6.833c0-2.443-.42-4.763-1.272-6.943-.843-2.186-1.99-4.09-3.438-5.723a15.791 15.791 0 0 0-5.114-3.833 14.343 14.343 0 0 0-6.16-1.385H430.19v35.99l-.003.007zm123.527-42.885v78.875h-7.665v-36.88h-46.775v36.88H491.5v-78.875h7.775v35.106h46.768v-35.107h7.67zm19.773 78.875v-78.875h32.67c3.41 0 6.532.725 9.387 2.175 2.858 1.442 5.318 3.33 7.386 5.656a26.967 26.967 0 0 1 4.89 7.948c1.185 2.96 1.778 5.957 1.778 8.998 0 3.25-.556 6.388-1.664 9.39-1.11 2.997-2.668 5.64-4.67 7.94-2 2.298-4.386 4.147-7.168 5.552-2.774 1.412-5.87 2.12-9.276 2.12h-25.55v29.104l-7.783-.008zm7.778-35.99h25.215c2.296 0 4.39-.503 6.275-1.504a15.243 15.243 0 0 0 4.824-3.996c1.34-1.668 2.366-3.59 3.112-5.777a21.143 21.143 0 0 0 1.11-6.833c0-2.443-.42-4.763-1.27-6.943-.85-2.186-2-4.09-3.444-5.723a15.866 15.866 0 0 0-5.114-3.833 14.325 14.325 0 0 0-6.164-1.385h-24.552v35.99l.007.007z"/></svg>