<svg xmlns="http://www.w3.org/2000/svg" width="342.729" height="320" viewBox="64.144 0 342.729 320"><path fill="#333" d="M141.027 227.652V0h100.68c10.47 0 20.142 2.196 29.017 6.574 8.866 4.382 16.513 10.156 22.926 17.313 6.412 7.167 11.438 15.29 15.07 24.37 3.634 9.09 5.45 18.228 5.45 27.413 0 14.75-3.69 28.168-11.06 40.238-7.375 12.08-17.37 20.796-29.98 26.134l51.942 85.61h-49.698l-46.492-76.313h-43.606v76.31h-44.25zm44.247-115.108h55.47c4.056 0 7.855-.96 11.383-2.886 3.527-1.924 6.575-4.537 9.14-7.856 2.564-3.308 4.59-7.214 6.09-11.703 1.498-4.49 2.244-9.3 2.244-14.43 0-5.34-.853-10.26-2.563-14.75-1.715-4.487-4.008-8.382-6.896-11.702-2.884-3.313-6.203-5.878-9.938-7.695-3.74-1.812-7.533-2.726-11.382-2.726h-53.544v73.747z"/><path fill="#8892BF" d="M290.952 53.872c-2.726-6.99-6.495-13.26-11.305-18.8-4.815-5.54-10.582-9.988-17.3-13.35-6.722-3.36-13.99-5.043-21.796-5.043h-80.336v193.424h5.445V22.137h74.89c6.712 0 13.07 1.498 19.068 4.495 5.993 2.998 11.21 6.948 15.663 11.852 4.45 4.906 7.947 10.534 10.494 16.89 2.54 6.36 3.815 12.988 3.815 19.887 0 6.723-1.092 13.26-3.272 19.617-2.18 6.358-5.312 12.032-9.398 17.02-4.09 5.004-9.038 9.044-14.846 12.125-5.82 3.094-12.357 4.633-19.617 4.633H199.46v-5.306l-14.162 8.175 14.16 8.177v-5.596h46.27c7.264-.545 13.934-2.495 20.02-5.856 6.088-3.358 11.312-7.713 15.664-13.078 4.364-5.354 7.717-11.48 10.08-18.388 2.356-6.9 3.544-14.073 3.544-21.522.004-7.266-1.36-14.397-4.084-21.39z"/><path fill="#333" d="M64.144 319.595v-47.808h21.142c2.2 0 4.233.46 6.092 1.38 1.864.92 3.47 2.132 4.817 3.64a17.128 17.128 0 0 1 3.164 5.113c.76 1.907 1.143 3.83 1.143 5.758 0 3.097-.775 5.915-2.324 8.448-1.548 2.54-3.646 4.37-6.295 5.49l10.907 17.98H92.357l-9.763-16.025h-9.157v16.027h-9.292v-.002zm9.29-24.172h11.647c.855 0 1.653-.202 2.39-.606s1.382-.955 1.92-1.65c.54-.698.965-1.515 1.28-2.457a9.527 9.527 0 0 0 .473-3.03c0-1.122-.18-2.153-.54-3.097-.36-.943-.843-1.765-1.45-2.458a6.498 6.498 0 0 0-2.086-1.615 5.364 5.364 0 0 0-2.39-.575H73.434v15.487h.002zm68.682 16.025v8.147h-33.198v-47.808h32.59v8.147h-23.295v11.514h20.132v7.543h-20.132v12.458h23.903zm20.874-39.66h8.212l18.182 47.808h-9.56l-4.446-11.92h-16.7l-4.378 11.92h-9.56l18.247-47.808h.003zm10.704 29.36l-6.6-18.79-6.865 18.79h13.467-.003zm16.297-5.794c0-2.918.53-5.803 1.583-8.652s2.59-5.398 4.61-7.642c2.02-2.245 4.49-4.062 7.407-5.455 2.918-1.392 6.24-2.086 9.964-2.086 4.4 0 8.205.963 11.416 2.893 3.205 1.932 5.6 4.445 7.17 7.542L225 286.87c-.63-1.345-1.392-2.478-2.29-3.398-.897-.92-1.86-1.65-2.895-2.19a13.077 13.077 0 0 0-3.232-1.178 15.38 15.38 0 0 0-3.3-.368c-2.334 0-4.366.47-6.093 1.41-1.73.946-3.165 2.17-4.31 3.672-1.145 1.504-2.01 3.21-2.592 5.117a19.315 19.315 0 0 0-.876 5.688c0 2.11.337 4.142 1.01 6.092.673 1.955 1.627 3.672 2.862 5.15a14.191 14.191 0 0 0 4.443 3.573c1.726.897 3.622 1.347 5.687 1.347 1.078 0 2.2-.135 3.368-.404a13.022 13.022 0 0 0 3.334-1.276 12.742 12.742 0 0 0 2.927-2.262c.897-.914 1.616-2.028 2.154-3.33l7.61 4.376a14.377 14.377 0 0 1-3.267 4.746c-1.413 1.37-3.007 2.525-4.78 3.468s-3.672 1.662-5.69 2.156c-2.02.496-3.993.742-5.925.742-3.412 0-6.53-.718-9.36-2.156-2.827-1.438-5.263-3.31-7.305-5.626a26.03 26.03 0 0 1-4.78-7.877c-1.146-2.938-1.716-5.937-1.716-8.988l.004.002zm84.373-15.42h-15.286v39.66h-9.225v-39.66h-15.284v-8.146h39.795v8.147z"/><path fill="#8892BF" d="M281.297 319.595v-47.808h19.795c2.064 0 3.96.438 5.69 1.314 1.732.88 3.22 2.02 4.48 3.432a16.323 16.323 0 0 1 2.96 4.815c.718 1.796 1.08 3.614 1.08 5.456 0 1.974-.337 3.87-1.013 5.69-.674 1.816-1.615 3.42-2.828 4.812a14.132 14.132 0 0 1-4.342 3.366c-1.683.856-3.558 1.285-5.623 1.285H286.01v17.64h-4.713zm4.712-21.816h15.282c1.392 0 2.66-.306 3.805-.91a9.296 9.296 0 0 0 2.93-2.424c.808-1.01 1.435-2.177 1.885-3.5.448-1.327.672-2.708.672-4.144a11.5 11.5 0 0 0-.772-4.21 11.464 11.464 0 0 0-2.083-3.466 9.623 9.623 0 0 0-3.102-2.323 8.654 8.654 0 0 0-3.736-.842h-14.88v21.818h-.003zm74.872-25.992v47.808h-4.646V297.24h-28.348v22.355h-4.715v-47.808h4.715v21.278h28.347v-21.278h4.648zm11.985 47.807v-47.808h19.797c2.068 0 3.963.438 5.69 1.314 1.73.88 3.223 2.02 4.48 3.432a16.266 16.266 0 0 1 2.962 4.815c.718 1.796 1.078 3.614 1.078 5.456 0 1.974-.337 3.87-1.01 5.69-.674 1.816-1.616 3.42-2.828 4.812a14.168 14.168 0 0 1-4.345 3.366c-1.682.856-3.558 1.285-5.62 1.285h-15.49v17.64h-4.714zm4.714-21.816h15.284c1.393 0 2.662-.306 3.805-.91s2.117-1.415 2.925-2.424c.81-1.01 1.438-2.177 1.887-3.5.448-1.327.673-2.708.673-4.144a11.5 11.5 0 0 0-.772-4.21c-.515-1.32-1.213-2.477-2.087-3.466a9.615 9.615 0 0 0-3.1-2.323 8.642 8.642 0 0 0-3.734-.842H377.58v21.818z"/></svg>