<svg xmlns="http://www.w3.org/2000/svg" width="258.704" height="320" viewBox="0 0 258.704 320"><path fill="#333" d="M185.69 199.66c17.725-7.504 31.774-19.753 42.14-36.73 10.367-16.97 15.55-35.83 15.55-56.563 0-12.912-2.562-25.762-7.662-38.535-5.115-12.77-12.168-24.18-21.182-34.254C205.52 23.516 194.77 15.404 182.31 9.24 169.837 3.088 156.24 0 141.52 0H0v320h62.197V212.733h61.295L188.845 320h69.86L185.69 199.66zm-38.51-11.16H82.133v7.855l-19.908-11.492 19.908-11.492v7.47h60.445c10.208 0 19.398-2.165 27.572-6.514 8.166-4.335 15.125-10.013 20.87-17.037 5.742-7.022 10.148-14.998 13.212-23.94a84.501 84.501 0 0 0 4.59-27.57c0-9.698-1.788-19.016-5.362-27.954-3.574-8.937-8.488-16.85-14.74-23.742-6.26-6.896-13.59-12.45-22.02-16.663-8.428-4.213-17.362-6.317-26.808-6.317H34.637v264.23h-7.662V23.448h112.923c10.976 0 21.188 2.367 30.637 7.09 9.442 4.732 17.55 10.987 24.315 18.772 6.76 7.787 12.064 16.597 15.894 26.42 3.83 9.832 5.748 19.855 5.748 30.063 0 10.468-1.668 20.553-4.982 30.252-3.32 9.704-8.04 18.32-14.168 25.848-6.123 7.53-13.464 13.662-22.016 18.38-8.557 4.728-17.938 7.465-28.147 8.23v-.004zm-84.983-30.303V54.537h75.268c5.41 0 10.74 1.28 16 3.83 5.254 2.556 9.915 6.16 13.972 10.817 4.056 4.66 7.277 10.14 9.69 16.45 2.402 6.31 3.605 13.23 3.605 20.732 0 7.21-1.054 13.972-3.15 20.282-2.11 6.31-4.963 11.797-8.568 16.45-3.604 4.664-7.887 8.34-12.845 11.042-4.96 2.705-10.294 4.057-16 4.057H62.197z"/></svg>