<svg xmlns="http://www.w3.org/2000/svg" width="320" height="320" viewBox="0 0 320 320"><path fill="#EEE" d="M320 300c0 11.048-8.954 20-20 20H20c-11.045 0-20-8.952-20-20V20C0 8.954 8.955 0 20 0h280c11.046 0 20 8.955 20 20v280z"/><path fill="#333" d="M84.999 258.956V61.044h87.526c9.104 0 17.514 1.909 25.229 5.716 7.709 3.81 14.355 8.827 19.932 15.052 5.573 6.229 9.939 13.29 13.103 21.185 3.157 7.901 4.735 15.849 4.735 23.834 0 12.822-3.205 24.485-9.616 34.982-6.41 10.501-15.101 18.077-26.062 22.718l45.155 74.427h-43.206l-40.419-66.342h-37.91v66.342l-38.467-.002zm38.467-100.071h48.226c3.523 0 6.826-.837 9.895-2.51 3.066-1.672 5.715-3.944 7.943-6.83 2.229-2.878 3.994-6.271 5.297-10.174 1.301-3.902 1.951-8.084 1.951-12.544 0-4.645-.744-8.92-2.23-12.823-1.492-3.901-3.484-7.289-5.992-10.173-2.51-2.88-5.395-5.109-8.643-6.689-3.253-1.575-6.549-2.369-9.896-2.369h-46.549l-.002 64.112z"/><path fill="#8892BF" d="M215.339 107.879c-2.368-6.076-5.647-11.526-9.829-16.343-4.186-4.813-9.197-8.684-15.037-11.605-5.846-2.919-12.162-4.383-18.951-4.383h-69.837v168.157h4.735V80.285h65.104c5.838 0 11.367 1.305 16.582 3.909 5.211 2.606 9.744 6.041 13.615 10.303 3.867 4.267 6.908 9.158 9.121 14.687a46.174 46.174 0 0 1 3.317 17.288 52.14 52.14 0 0 1-2.845 17.052c-1.896 5.529-4.617 10.461-8.17 14.802-3.557 4.348-7.857 7.856-12.906 10.54-5.057 2.69-10.742 4.028-17.053 4.028H135.8v-4.621l-12.314 7.107 12.314 7.108v-4.858h40.225c6.312-.474 12.115-2.169 17.406-5.091 5.291-2.92 9.832-6.71 13.618-11.369 3.79-4.654 6.708-9.984 8.763-15.986 2.049-5.999 3.082-12.233 3.082-18.711 0-6.314-1.188-12.515-3.554-18.594h-.001z"/></svg>