<svg xmlns="http://www.w3.org/2000/svg" width="258.704" height="320" viewBox="0 0 258.704 320"><path fill="#333" d="M0 320V0h141.52c14.722 0 28.317 3.087 40.79 9.24 12.466 6.16 23.212 14.273 32.227 24.337C223.55 43.65 230.61 55.065 235.72 67.83c5.106 12.774 7.66 25.624 7.66 38.536 0 20.732-5.182 39.59-15.55 56.562-10.364 16.98-24.414 29.228-42.138 36.732L258.704 320h-69.86l-65.352-107.267H62.197V320H0zm62.197-161.803h77.973c5.7 0 11.04-1.352 16-4.057 4.957-2.703 9.24-6.378 12.844-11.042 3.605-4.653 6.457-10.14 8.563-16.45 2.102-6.31 3.155-13.07 3.155-20.282 0-7.51-1.203-14.423-3.606-20.732-2.412-6.31-5.634-11.786-9.69-16.45-4.056-4.657-8.72-8.262-13.972-10.817-5.26-2.546-10.59-3.83-16-3.83H62.198v103.66z"/><path fill="#8892BF" d="M210.744 75.726c-3.83-9.826-9.13-18.637-15.892-26.425-6.768-7.783-14.872-14.04-24.315-18.765-9.45-4.72-19.663-7.085-30.64-7.085H26.976v271.89h7.657V31.11h105.266c9.44 0 18.38 2.11 26.81 6.32 8.426 4.215 15.757 9.768 22.016 16.66 6.254 6.897 11.17 14.806 14.747 23.745 3.572 8.937 5.364 18.254 5.364 27.952a84.36 84.36 0 0 1-4.598 27.57c-3.065 8.94-7.467 16.914-13.21 23.933-5.75 7.03-12.705 12.703-20.87 17.042-8.176 4.35-17.366 6.513-27.572 6.513H82.142v-7.472l-19.91 11.494 19.91 11.494v-7.856h65.036c10.207-.766 19.59-3.508 28.145-8.232 8.555-4.72 15.896-10.848 22.02-18.383 6.128-7.526 10.846-16.144 14.167-25.848 3.314-9.7 4.982-19.78 4.982-30.254 0-10.21-1.917-20.235-5.744-30.064h-.004z"/></svg>