<svg xmlns="http://www.w3.org/2000/svg" width="160" height="160" viewBox="0 0 160 160"><path fill="#EEE" d="M160 150c0 5.524-4.477 10-10 10H10c-5.522 0-10-4.476-10-10V10C0 4.477 4.478 0 10 0h140c5.523 0 10 4.478 10 10v140z"/><path fill="#333" d="M42.5 129.478V30.522h43.764c4.551 0 8.756.955 12.614 2.858 3.854 1.905 7.178 4.413 9.965 7.526 2.787 3.114 4.97 6.645 6.552 10.592 1.578 3.951 2.367 7.925 2.367 11.917 0 6.411-1.603 12.243-4.807 17.491-3.205 5.251-7.551 9.039-13.031 11.359l22.577 37.213h-21.604l-20.209-33.17H61.733v33.17H42.5zm19.233-50.035h24.113c1.762 0 3.414-.419 4.948-1.255 1.533-.836 2.857-1.971 3.971-3.416 1.115-1.438 1.998-3.135 2.649-5.086.65-1.951.975-4.042.975-6.272 0-2.322-.372-4.46-1.115-6.412-.745-1.95-1.741-3.645-2.995-5.086-1.256-1.44-2.698-2.554-4.322-3.345-1.626-.787-3.275-1.184-4.948-1.184H61.734l-.001 32.056z"/></svg>