<svg xmlns="http://www.w3.org/2000/svg" width="320" height="406.223" viewBox="0 0 320 406.223"><path fill="#584B4F" d="M320 406.222l-86.512-155.414c-2.67 1.365-5.377 2.67-8.124 3.908-22.305 10.07-53.394 12.458-69.62 12.996l72.4 138.51H320z"/><path fill="#4F5B93" d="M255.317 36.795C231.537 12.265 199.49 0 159.18 0H91.857C58.763 0 35.177 6.943 21.11 20.822 7.032 34.712 0 56.864 0 87.292v318.93h79.305V106.69c0-23.96 11.784-35.943 35.373-35.943h39.367c17.492 0 31.472 5.33 41.934 15.973 10.457 10.653 15.69 24.63 15.69 41.938 0 17.31-5.422 31.765-16.26 43.358-10.842 11.605-24.63 17.4-41.366 17.4h-16.17v-14.667L92.38 222.454l45.495 47.707v-14.54c8.476.042 50.74-.412 78.93-13.146 20.28-9.154 38.513-21.394 52.776-41.362 14.264-19.97 21.396-43.648 21.396-71.032 0-37.658-11.894-68.748-35.66-93.285z"/></svg>
