<svg xmlns="http://www.w3.org/2000/svg" width="512" height="512" viewBox="-96 -52.888 512 512"><path fill="#584B4F" d="M320.312 401l-84.974-152.65c-2.623 1.34-5.282 2.622-7.98 3.838-21.91 9.892-52.444 12.236-68.382 12.766L230.09 401h90.222z"/><path fill="#4F5B93" d="M256.777 38.14C233.42 14.048 201.943 2 162.35 2H96.224C63.72 2 40.55 8.82 26.734 22.45 12.907 36.096 6 57.854 6 87.74V401h77.896V106.793c0-23.534 11.574-35.304 34.744-35.304h38.667c17.18 0 30.913 5.234 41.188 15.688 10.27 10.464 15.412 24.192 15.412 41.193 0 17.003-5.326 31.2-15.97 42.587-10.65 11.4-24.193 17.09-40.632 17.09h-15.883v-14.405l-44.684 46.856 44.686 46.86v-14.282c8.326.04 49.838-.405 77.526-12.913 19.92-8.99 37.83-21.014 51.838-40.627 14.012-19.615 21.016-42.872 21.016-69.77 0-36.986-11.683-67.523-35.027-91.625z"/></svg>
