<svg xmlns="http://www.w3.org/2000/svg" width="282.728" height="40" viewBox="64.143 169.361 282.728 40"><path fill="#333" d="M64.144 209.02v-39.438h17.441c1.815 0 3.491.382 5.025 1.139a13.033 13.033 0 0 1 3.974 3.004 14.156 14.156 0 0 1 2.61 4.218c.632 1.573.948 3.161.948 4.75 0 2.556-.64 4.88-1.919 6.97-1.275 2.095-3.006 3.606-5.191 4.53l8.996 14.832h-8.609l-8.055-13.22h-7.555v13.221h-7.665v-.006zm7.663-19.94h9.608c.702 0 1.36-.167 1.969-.498a5.132 5.132 0 0 0 1.584-1.363 6.772 6.772 0 0 0 1.056-2.025 7.88 7.88 0 0 0 .39-2.501c0-.927-.148-1.776-.445-2.554a6.676 6.676 0 0 0-1.196-2.028 5.36 5.36 0 0 0-1.722-1.332 4.44 4.44 0 0 0-1.97-.476h-9.277v12.775l.003.002zm56.656 13.221v6.719h-27.385v-39.438h26.883v6.723h-19.215v9.498h16.607v6.222h-16.606v10.274l19.718-.002-.002.002v.002zm17.22-32.719h6.775l14.998 39.438h-7.885l-3.667-9.832h-13.78l-3.607 9.832h-7.887l15.053-39.438zm8.829 24.221l-5.445-15.498-5.661 15.498h11.108-.002zm13.444-4.778c0-2.408.437-4.789 1.304-7.141.87-2.348 2.139-4.451 3.804-6.303s3.703-3.351 6.11-4.498c2.406-1.149 5.148-1.723 8.221-1.723 3.629 0 6.768.795 9.415 2.389 2.647 1.594 4.62 3.665 5.915 6.22l-5.888 4.055c-.518-1.109-1.145-2.045-1.885-2.804a9.389 9.389 0 0 0-2.39-1.806c-.842-.44-1.74-.768-2.668-.972a12.725 12.725 0 0 0-2.723-.304c-1.925 0-3.602.388-5.025 1.163a11.086 11.086 0 0 0-3.555 3.028 13.452 13.452 0 0 0-2.138 4.223 15.95 15.95 0 0 0-.723 4.694c0 1.737.28 3.414.835 5.024.554 1.612 1.343 3.027 2.361 4.249a11.75 11.75 0 0 0 3.663 2.949c1.425.74 2.987 1.11 4.695 1.11.887 0 1.812-.112 2.775-.333a10.691 10.691 0 0 0 2.751-1.054 10.36 10.36 0 0 0 2.416-1.865c.74-.753 1.335-1.675 1.777-2.744l6.278 3.608a11.84 11.84 0 0 1-2.691 3.915 17.283 17.283 0 0 1-3.945 2.857 19.933 19.933 0 0 1-4.694 1.78c-1.667.41-3.293.615-4.887.615-2.813 0-5.388-.595-7.72-1.779-2.335-1.188-4.344-2.732-6.03-4.644a21.404 21.404 0 0 1-3.941-6.499c-.943-2.422-1.417-4.892-1.417-7.41h.002l-.002-.003v.003zm69.6-12.72h-12.61v32.716h-7.61v-32.716h-12.605v-6.723h32.828v6.723h-.003z"/><path fill="#8892BF" d="M243.277 209.02v-39.438h16.329c1.705 0 3.268.362 4.697 1.088a12.392 12.392 0 0 1 3.693 2.828 13.51 13.51 0 0 1 2.443 3.974c.594 1.479.89 2.979.89 4.499 0 1.625-.277 3.194-.833 4.695a12.703 12.703 0 0 1-2.335 3.97 11.673 11.673 0 0 1-3.579 2.776c-1.389.705-2.937 1.06-4.64 1.06h-12.775v14.552l-3.887-.004h-.003zm3.888-17.996h12.605c1.15 0 2.196-.251 3.14-.752a7.637 7.637 0 0 0 2.415-1.998 9.358 9.358 0 0 0 1.555-2.888c.372-1.102.559-2.256.555-3.417a9.46 9.46 0 0 0-.636-3.472 9.3 9.3 0 0 0-1.719-2.861 7.876 7.876 0 0 0-2.557-1.916 7.18 7.18 0 0 0-3.08-.693h-12.276v17.995l-.001.004v-.002zm61.764-21.442v39.438h-3.833v-18.44h-23.388v18.439h-3.887v-39.438h3.887v17.553h23.384v-17.553h3.837v.001zm9.886 39.438v-39.438h16.335c1.705 0 3.266.362 4.693 1.088a12.3 12.3 0 0 1 3.693 2.828 13.491 13.491 0 0 1 2.445 3.974c.592 1.479.889 2.979.889 4.499 0 1.625-.278 3.194-.832 4.695a12.722 12.722 0 0 1-2.335 3.97 11.67 11.67 0 0 1-3.584 2.776c-1.388.705-2.935 1.06-4.638 1.06h-12.775v14.552l-3.891-.004zm3.89-17.996h12.607c1.147 0 2.194-.251 3.137-.752a7.593 7.593 0 0 0 2.412-1.998c.67-.834 1.184-1.795 1.557-2.888.371-1.102.559-2.256.555-3.417a9.48 9.48 0 0 0-.635-3.472 9.429 9.429 0 0 0-1.723-2.861 7.905 7.905 0 0 0-2.557-1.916 7.16 7.16 0 0 0-3.082-.693h-12.275v17.995l.003.004.001-.002z"/></svg>