<svg xmlns="http://www.w3.org/2000/svg" width="257.045" height="240" viewBox="64.144 0 257.045 240"><path fill="#333" d="M121.805 170.738V0h75.51c7.852 0 15.105 1.647 21.762 4.931 6.65 3.286 12.385 7.617 17.195 12.985 4.809 5.375 8.578 11.467 11.303 18.277 2.725 6.818 4.087 13.671 4.087 20.56 0 11.062-2.768 21.126-8.296 30.179-5.531 9.06-13.026 15.597-22.484 19.601l38.956 64.207h-37.272l-34.869-57.234h-32.704v57.232h-33.188zm33.185-86.331h41.603c3.043 0 5.891-.72 8.537-2.165 2.645-1.443 4.932-3.403 6.855-5.892 1.923-2.481 3.441-5.411 4.566-8.777 1.124-3.367 1.684-6.976 1.684-10.823 0-4.005-.64-7.694-1.922-11.062-1.287-3.365-3.007-6.287-5.172-8.777-2.163-2.484-4.652-4.408-7.453-5.771-2.805-1.359-5.65-2.045-8.537-2.045h-40.158v55.31l-.003.002z"/><path fill="#8892BF" d="M234.249 40.404c-2.045-5.243-4.871-9.945-8.479-14.1-3.61-4.155-7.937-7.491-12.975-10.012-5.041-2.521-10.493-3.782-16.347-3.782h-60.252v145.067h4.084V16.603h56.168c5.033 0 9.803 1.124 14.301 3.371 4.494 2.249 8.407 5.211 11.746 8.89 3.338 3.68 5.961 7.9 7.871 12.667a39.877 39.877 0 0 1 2.861 14.916c0 5.042-.819 9.944-2.455 14.712-1.635 4.769-3.983 9.024-7.048 12.765-3.067 3.753-6.778 6.783-11.135 9.094-4.364 2.32-9.268 3.475-14.712 3.475h-32.248v-3.979l-10.622 6.13 10.62 6.133v-4.197h34.703c5.448-.408 10.45-1.872 15.015-4.392 4.566-2.518 8.483-5.785 11.748-9.809 3.272-4.015 5.788-8.61 7.56-13.791 1.768-5.176 2.658-10.555 2.658-16.142.005-5.449-1.019-10.798-3.062-16.042z"/><path fill="#333" d="M64.144 239.695v-35.856h15.857c1.649 0 3.174.345 4.569 1.035a11.775 11.775 0 0 1 3.612 2.73 12.858 12.858 0 0 1 2.373 3.834c.57 1.431.857 2.873.857 4.319 0 2.322-.582 4.437-1.743 6.336-1.161 1.904-2.734 3.277-4.721 4.117l8.18 13.484h-7.825l-7.322-12.018h-6.868v12.02h-6.969v-.001zm6.967-18.129h8.736c.641 0 1.239-.152 1.792-.455a4.618 4.618 0 0 0 1.44-1.238 6.137 6.137 0 0 0 .96-1.842c.24-.733.359-1.501.354-2.271 0-.842-.135-1.615-.405-2.324a6.056 6.056 0 0 0-1.087-1.843 4.852 4.852 0 0 0-1.564-1.211 4.018 4.018 0 0 0-1.792-.432h-8.433v11.616l.001-.001-.002.001zm51.512 12.018v6.111H97.724v-35.856h24.442v6.11h-17.471v8.635h15.099v5.658h-15.099v9.344h17.927v-.002zm15.655-29.744h6.16l13.636 35.855h-7.17l-3.334-8.939h-12.525l-3.284 8.939h-7.169l13.685-35.855h.001zm8.028 22.02l-4.95-14.093-5.148 14.093h10.098zm12.223-4.347c0-2.188.397-4.352 1.187-6.488a17.638 17.638 0 0 1 3.458-5.731c1.515-1.684 3.368-3.047 5.555-4.091 2.188-1.045 4.681-1.564 7.473-1.564 3.301 0 6.154.722 8.562 2.169 2.403 1.45 4.199 3.334 5.377 5.657l-5.355 3.687c-.472-1.009-1.045-1.858-1.718-2.548a8.563 8.563 0 0 0-2.171-1.643 9.847 9.847 0 0 0-2.425-.884 11.502 11.502 0 0 0-2.474-.276c-1.751 0-3.274.353-4.57 1.058a10.097 10.097 0 0 0-3.233 2.754 12.09 12.09 0 0 0-1.943 3.838 14.449 14.449 0 0 0-.657 4.266 13.9 13.9 0 0 0 .757 4.569c.504 1.467 1.221 2.754 2.147 3.862a10.642 10.642 0 0 0 3.332 2.681c1.295.673 2.716 1.01 4.266 1.01.809 0 1.649-.102 2.525-.303a9.775 9.775 0 0 0 2.501-.957 9.527 9.527 0 0 0 2.195-1.696c.673-.686 1.213-1.522 1.615-2.498l5.707 3.282a10.77 10.77 0 0 1-2.449 3.559 15.756 15.756 0 0 1-3.585 2.602 18.273 18.273 0 0 1-4.269 1.617 18.574 18.574 0 0 1-4.443.557c-2.559 0-4.898-.539-7.02-1.617-2.121-1.078-3.947-2.482-5.479-4.219a19.51 19.51 0 0 1-3.584-5.908 18.407 18.407 0 0 1-1.288-6.742l.003.002.003-.005zm63.279-11.564h-11.464v29.746h-6.919v-29.746h-11.464v-6.109h29.847v6.109z"/><path fill="#8892BF" d="M227.008 239.695v-35.856h14.846c1.548 0 2.97.329 4.269.986a11.33 11.33 0 0 1 3.359 2.573 12.285 12.285 0 0 1 2.22 3.611c.538 1.348.81 2.711.81 4.093a12.14 12.14 0 0 1-.76 4.267 11.56 11.56 0 0 1-2.121 3.609 10.603 10.603 0 0 1-3.256 2.525c-1.263.641-2.669.963-4.217.963h-11.615v13.229h-3.535zm3.534-16.362h11.461c1.044 0 1.995-.229 2.854-.683a6.949 6.949 0 0 0 2.197-1.817 8.615 8.615 0 0 0 1.414-2.625 9.648 9.648 0 0 0 .504-3.108 8.616 8.616 0 0 0-.579-3.158 8.622 8.622 0 0 0-1.562-2.599 7.243 7.243 0 0 0-2.326-1.743 6.503 6.503 0 0 0-2.803-.631h-11.16v16.364l-.002-.001.002.001zm56.153-19.494v35.856h-3.484v-16.767h-21.26v16.767h-3.537v-35.856h3.537v15.958h21.26v-15.958h3.486-.002zm8.99 35.856v-35.857h14.847c1.552 0 2.973.329 4.268.986a11.311 11.311 0 0 1 3.36 2.574 12.2 12.2 0 0 1 2.221 3.611c.539 1.347.809 2.71.809 4.092 0 1.48-.252 2.902-.758 4.268a11.597 11.597 0 0 1-2.119 3.609 10.67 10.67 0 0 1-3.26 2.524c-1.262.642-2.669.962-4.216.962H299.22v13.23h-3.535v.001zm3.535-16.363h11.463c1.044 0 1.996-.229 2.854-.682a6.948 6.948 0 0 0 2.193-1.818 8.587 8.587 0 0 0 1.416-2.625 9.676 9.676 0 0 0 .504-3.108 8.607 8.607 0 0 0-.579-3.157 8.643 8.643 0 0 0-1.565-2.6 7.2 7.2 0 0 0-2.325-1.742 6.488 6.488 0 0 0-2.8-.632h-11.16v16.364h-.001z"/></svg>