<svg xmlns="http://www.w3.org/2000/svg" width="129.352" height="160" viewBox="0 0 129.352 160"><path fill="#333" d="M0 160V0h70.76c7.361 0 14.158 1.543 20.395 4.62 6.233 3.08 11.606 7.137 16.114 12.168 4.506 5.037 8.036 10.744 10.591 17.126 2.554 6.387 3.83 12.812 3.83 19.268 0 10.366-2.591 19.795-7.774 28.281-5.183 8.49-12.207 14.614-21.069 18.366L129.352 160h-34.93l-32.676-53.633H31.098V160H0zm31.098-80.902h38.987c2.85 0 5.52-.676 8-2.028 2.479-1.352 4.62-3.189 6.422-5.521 1.803-2.327 3.229-5.07 4.281-8.225 1.051-3.155 1.577-6.535 1.577-10.141 0-3.755-.602-7.211-1.803-10.366-1.206-3.155-2.816-5.893-4.845-8.225-2.028-2.329-4.36-4.131-6.986-5.409-2.63-1.273-5.295-1.915-8-1.915H31.099l-.001 51.83z"/><path fill="#8892BF" d="M105.373 37.863c-1.915-4.913-4.565-9.319-7.946-13.212-3.384-3.892-7.437-7.02-12.157-9.383-4.726-2.36-9.832-3.542-15.32-3.542H13.488V147.67h3.829V15.555H69.95c4.72 0 9.189 1.055 13.405 3.16a37.227 37.227 0 0 1 11.008 8.33c3.127 3.449 5.585 7.403 7.373 11.873a37.321 37.321 0 0 1 2.683 13.976 42.154 42.154 0 0 1-2.3 13.785c-1.532 4.47-3.733 8.457-6.604 11.966-2.875 3.515-6.353 6.352-10.435 8.521-4.089 2.175-8.684 3.257-13.786 3.257H41.071v-3.736l-9.955 5.747 9.955 5.747v-3.928H73.59c5.104-.383 9.795-1.754 14.072-4.116a37.236 37.236 0 0 0 11.01-9.191c3.064-3.763 5.423-8.072 7.084-12.924 1.657-4.85 2.491-9.89 2.491-15.127 0-5.105-.959-10.117-2.872-15.032h-.002z"/></svg>