<svg xmlns="http://www.w3.org/2000/svg" width="80" height="80" viewBox="0 0 80 80"><path fill="#333" d="M80 75a5 5 0 0 1-5 5H5a5 5 0 0 1-5-5V5a5 5 0 0 1 5-5h70a5 5 0 0 1 5 5v70z"/><path fill="#F7F7F7" d="M21.406 64.739V15.261h21.881c2.276 0 4.378.478 6.307 1.429a16.319 16.319 0 0 1 4.983 3.763 17.801 17.801 0 0 1 3.275 5.296c.79 1.976 1.185 3.962 1.185 5.959 0 3.206-.802 6.121-2.405 8.745-1.603 2.625-3.775 4.52-6.515 5.68l11.289 18.606H50.605L40.501 48.154h-9.478v16.585h-9.617zm9.617-25.018h12.056c.882 0 1.708-.209 2.474-.627a6.288 6.288 0 0 0 1.986-1.707c.557-.719.999-1.567 1.324-2.543a9.858 9.858 0 0 0 .488-3.136c0-1.161-.186-2.23-.558-3.206-.373-.976-.871-1.822-1.498-2.543a6.796 6.796 0 0 0-2.16-1.672c-.813-.394-1.637-.593-2.474-.593H31.023v16.027z"/></svg>