<svg xmlns="http://www.w3.org/2000/svg" width="129.353" height="160" viewBox="0 0 129.353 160"><path fill="#333" d="M92.845 99.83c8.862-3.752 15.887-9.876 21.07-18.365 5.183-8.485 7.774-17.915 7.774-28.282 0-6.456-1.281-12.881-3.831-19.268-2.558-6.385-6.084-12.09-10.591-17.127-4.508-5.031-9.883-9.087-16.113-12.169C84.918 1.544 78.121 0 70.76 0H0v160h31.098v-53.633h30.648L94.422 160h34.931L92.845 99.83zM73.59 94.25H41.066v3.928l-9.954-5.746 9.954-5.746v3.735H71.29c5.104 0 9.698-1.083 13.785-3.257 4.083-2.167 7.562-5.006 10.436-8.519 2.871-3.511 5.074-7.499 6.605-11.97a42.237 42.237 0 0 0 2.295-13.785c0-4.849-.894-9.508-2.681-13.977-1.787-4.468-4.244-8.425-7.37-11.871a37.182 37.182 0 0 0-11.01-8.332c-4.214-2.106-8.681-3.158-13.404-3.158H17.319v132.115h-3.831V11.724h56.461c5.488 0 10.595 1.184 15.319 3.545 4.721 2.366 8.774 5.494 12.157 9.386 3.38 3.894 6.032 8.298 7.947 13.21 1.915 4.916 2.874 9.927 2.874 15.031 0 5.234-.834 10.277-2.491 15.126-1.66 4.852-4.021 9.16-7.084 12.924a37.253 37.253 0 0 1-11.008 9.19c-4.279 2.364-8.97 3.732-14.074 4.115l.001-.001zM31.098 79.098v-51.83h37.635c2.705 0 5.37.64 8 1.915 2.627 1.278 4.957 3.08 6.985 5.409 2.028 2.33 3.639 5.07 4.846 8.225 1.2 3.155 1.802 6.615 1.802 10.366 0 3.605-.526 6.986-1.574 10.141-1.056 3.155-2.481 5.898-4.284 8.225-1.802 2.332-3.943 4.17-6.423 5.521-2.479 1.353-5.146 2.028-8 2.028H31.098z"/></svg>